<?xml version="1.0" encoding="utf-8"?>
<!-- Generator: Adobe Illustrator 24.1.0, SVG Export Plug-In . SVG Version: 6.00 Build 0)  -->
<svg version="1.1" id="Capa_1" xmlns="http://www.w3.org/2000/svg" xmlns:xlink="http://www.w3.org/1999/xlink" x="0px" y="0px"
	 viewBox="0 0 372.2 372.2" style="enable-background:new 0 0 372.2 372.2;" xml:space="preserve">
<style type="text/css">
	.st0{fill:#D1D1D1;}
	.st1{fill:#85BCFF;}
	.st2{fill:#FFFFFF;}
	.st3{fill:#FD7792;}
</style>
<g>
	<path class="st0" d="M186.1,0C83.3,0,0,83.3,0,186.1s83.3,186.1,186.1,186.1s186.1-83.3,186.1-186.1S288.9,0,186.1,0z M186.1,350.5
		c-90.8,0-164.3-73.6-164.3-164.3c0-90.8,73.6-164.3,164.3-164.3c90.7,0,164.3,73.5,164.3,164.3
		C350.5,276.9,276.9,350.4,186.1,350.5C186.1,350.5,186.1,350.5,186.1,350.5L186.1,350.5z"/>
	<circle class="st1" cx="186.1" cy="186.1" r="175.4"/>
	<path class="st2" d="M277.8,212.6l-0.1-0.2c-8.2-15.4-26.3-20.9-41.1-12.5l-22.9,12.8c0.1,1.1,0.2,2.2,0.2,2.8
		c0,9-4.4,17.4-11.9,22.3c-3.1,2-6.8,3-10.5,3.1c-4.1-0.1-8.1-1.3-11.6-3.5l-0.2-0.1l-19.6-13.5c-2.5-1.9-3.2-5.3-1.6-8
		c1.4-2.5,4.5-3.4,7-2.1c0.2,0.1,0.3,0.2,0.5,0.3l19.5,13.4c4.9,3,8.8,1.9,11.2,0.4c3.1-2.1,5.3-5.2,6.1-8.8l0,0
		c1.1-5.7-1.5-11.4-6.4-14.3l-22.2-13.9c-2.2-1.7-4.9-2.7-7.7-2.7h-29.6v55.1h3.4l42.7,26.7c2.4,1.6,5.2,2.4,8.1,2.5
		c2.5,0,5-0.8,7.1-2.2l78.8-53.6C278.2,215.6,278.5,213.9,277.8,212.6L277.8,212.6z"/>
	<path class="st2" d="M120.6,170H99.5c-3.1,0.1-5.5,2.7-5.4,5.8v81.2c-0.1,3.1,2.3,5.7,5.4,5.8h21.2c3.1-0.1,5.5-2.7,5.4-5.8v-81.3
		C126.1,172.7,123.7,170.2,120.6,170z"/>
	<path class="st3" d="M213.2,181c7.2,0,18.2-8.8,26-17.5c6.3-7.1,16.9-21.2,16.9-36.4c0-14.9-11.2-27.1-25-27.1
		c-6.8,0-13.3,3-17.8,8.1c-4.5-5.1-11-8-17.8-8.1c-13.8,0-25,12.1-25,27.1c0,14,10.6,28.3,16.8,35.6
		C194.5,171.1,205.7,181,213.2,181L213.2,181z"/>
</g>
</svg>
