<svg xmlns="http://www.w3.org/2000/svg" id="Capa_1" x="0" y="0" version="1.1" viewBox="0 0 372.2 372.2" xml:space="preserve"><style>.st0{fill:#d1d1d1}.st1{fill:#85bcff}.st2{fill:#fff}.st3{fill:#fd7792}</style><path d="M186.1 0C83.3 0 0 83.3 0 186.1s83.3 186.1 186.1 186.1 186.1-83.3 186.1-186.1S288.9 0 186.1 0zm0 350.5c-90.8 0-164.3-73.6-164.3-164.3 0-90.8 73.6-164.3 164.3-164.3 90.7 0 164.3 73.5 164.3 164.3.1 90.7-73.5 164.2-164.3 164.3z" class="st0"/><circle cx="186.1" cy="186.1" r="175.4" class="st1"/><path d="M277.8 212.6l-.1-.2c-8.2-15.4-26.3-20.9-41.1-12.5l-22.9 12.8c.1 1.1.2 2.2.2 2.8 0 9-4.4 17.4-11.9 22.3-3.1 2-6.8 3-10.5 3.1-4.1-.1-8.1-1.3-11.6-3.5l-.2-.1-19.6-13.5c-2.5-1.9-3.2-5.3-1.6-8 1.4-2.5 4.5-3.4 7-2.1.2.1.3.2.5.3l19.5 13.4c4.9 3 8.8 1.9 11.2.4 3.1-2.1 5.3-5.2 6.1-8.8 1.1-5.7-1.5-11.4-6.4-14.3l-22.2-13.9c-2.2-1.7-4.9-2.7-7.7-2.7h-29.6v55.1h3.4l42.7 26.7c2.4 1.6 5.2 2.4 8.1 2.5 2.5 0 5-.8 7.1-2.2l78.8-53.6c1.2-1 1.5-2.7.8-4zM120.6 170H99.5c-3.1.1-5.5 2.7-5.4 5.8V257c-.1 3.1 2.3 5.7 5.4 5.8h21.2c3.1-.1 5.5-2.7 5.4-5.8v-81.3c0-3-2.4-5.5-5.5-5.7z" class="st2"/><path d="M213.2 181c7.2 0 18.2-8.8 26-17.5 6.3-7.1 16.9-21.2 16.9-36.4 0-14.9-11.2-27.1-25-27.1-6.8 0-13.3 3-17.8 8.1-4.5-5.1-11-8-17.8-8.1-13.8 0-25 12.1-25 27.1 0 14 10.6 28.3 16.8 35.6 7.2 8.4 18.4 18.3 25.9 18.3z" class="st3"/></svg>