<svg xmlns="http://www.w3.org/2000/svg" xmlns:xlink="http://www.w3.org/1999/xlink" width="22" height="22" version="1.1" viewBox="0 0 22 22"><title>live</title><desc>Created with Sketch.</desc><g id="live" fill="none" fill-rule="evenodd" stroke="none" stroke-width="1"><g id="Group" fill="red" transform="translate(1.000000, 1.000000)"><path id="Combined-Shape" d="M9.95180723,1.42108547e-14 C15.4480386,1.42108547e-14 19.9036145,4.45557586 19.9036145,9.95180723 C19.9036145,15.4480386 15.4480386,19.9036145 9.95180723,19.9036145 C4.45557586,19.9036145 1.42108547e-14,15.4480386 1.42108547e-14,9.95180723 C1.42108547e-14,4.45557586 4.45557586,1.42108547e-14 9.95180723,1.42108547e-14 Z M9.95180723,1.34939759 C5.20082757,1.34939759 1.34939759,5.20082757 1.34939759,9.95180723 C1.34939759,14.7027869 5.20082757,18.5542169 9.95180723,18.5542169 C14.7027869,18.5542169 18.5542169,14.7027869 18.5542169,9.95180723 C18.5542169,5.20082757 14.7027869,1.34939759 9.95180723,1.34939759 Z"/><circle id="Oval" cx="9.952" cy="9.952" r="7.59"/></g></g></svg>